<svg class="main-svg" xmlns="http://www.w3.org/2000/svg" xmlns:xlink="http://www.w3.org/1999/xlink" width="700" height="500" style="" viewBox="0 0 700 500"><rect x="0" y="0" width="700" height="500" style="fill: rgb(255, 255, 255); fill-opacity: 1;"/><defs id="defs-3306aa"><g class="clips"><clipPath id="clip3306aaxyplot" class="plotclip"><rect width="627" height="434"/></clipPath><clipPath class="axesclip" id="clip3306aax"><rect x="60" y="0" width="627" height="500"/></clipPath><clipPath class="axesclip" id="clip3306aay"><rect x="0" y="25" width="700" height="434"/></clipPath><clipPath class="axesclip" id="clip3306aaxy"><rect x="60" y="25" width="627" height="434"/></clipPath></g><g class="gradients"/></defs><g class="bglayer"/><g class="layer-below"><g class="imagelayer"/><g class="shapelayer"/></g><g class="cartesianlayer"><g class="subplot xy"><g class="layer-subplot"><g class="shapelayer"/><g class="imagelayer"/></g><g class="gridlayer"><g class="x"/><g class="y"/></g><g class="zerolinelayer"><path class="xzl zl crisp" transform="translate(269,0)" d="M0,25v434" style="stroke: rgb(68, 68, 68); stroke-opacity: 1; stroke-width: 1px;"/><path class="yzl zl crisp" transform="translate(0,459)" d="M60,0h627" style="stroke: rgb(68, 68, 68); stroke-opacity: 1; stroke-width: 1px;"/></g><path class="xlines-below"/><path class="ylines-below"/><g class="overlines-below"/><g class="xaxislayer-below"/><g class="yaxislayer-below"/><g class="overaxes-below"/><g class="plot" transform="translate(60, 25)" clip-path="url('#clip3306aaxyplot')"><g class="scatterlayer mlayer"><g class="trace scatter traceb66bfd" style="stroke-miterlimit: 2;"><g class="fills"><g><path class="js-fill" d="M627,434L0,434L0,434Q2.18,434 3.27,434C4.36,434 5.44,434 6.53,434C7.62,434 8.71,434 9.8,434C10.89,434 11.97,434 13.06,434C14.15,434 15.24,434 16.33,434C17.42,434 18.5,434 19.59,434C20.68,434 21.77,434 22.86,434C23.95,434 25.04,434 26.13,434C27.22,434 28.3,434 29.39,434C30.48,434 31.57,434 32.66,434C33.75,434 34.83,434 35.92,434C37.01,434 38.1,434 39.19,434C40.28,434 41.36,434 42.45,434C43.54,434 44.63,434 45.72,434C46.81,434 47.89,434 48.98,434C50.07,434 51.16,434 52.25,434C53.34,434 54.43,434 55.52,434C56.61,434 57.69,434 58.78,434C59.87,434 60.96,434 62.05,434C63.14,434 64.22,434 65.31,434C66.4,434 67.49,434 68.58,434C69.67,434 70.75,434 71.84,434C72.93,434 74.02,434 75.11,434C76.2,434 77.29,434 78.38,434C79.47,434 80.55,434 81.64,434C82.73,434 83.82,434 84.91,434C86,434 87.08,434 88.17,434C89.26,434 90.35,434 91.44,434C92.53,434 93.61,434 94.7,434C95.79,434 96.88,434 97.97,434C99.06,434 100.14,434 101.23,434C102.32,434 103.41,434 104.5,434C105.59,434 106.68,434 107.77,434C108.86,434 109.94,434 111.03,434C112.12,434 113.21,434 114.3,434C115.39,434 116.47,433.99 117.56,433.99C118.65,433.99 119.74,433.99 120.83,433.99C121.92,433.99 123,433.99 124.09,433.99C125.18,433.99 126.27,433.99 127.36,433.99C128.45,433.99 129.54,433.98 130.63,433.98C131.72,433.98 132.8,433.98 133.89,433.98C134.98,433.98 136.07,433.97 137.16,433.97C138.25,433.97 139.33,433.96 140.42,433.96C141.51,433.96 142.6,433.95 143.69,433.95C144.78,433.95 145.86,433.94 146.95,433.94C148.04,433.93 149.13,433.93 150.22,433.92C151.31,433.91 152.39,433.9 153.48,433.89C154.57,433.88 155.66,433.87 156.75,433.86C157.84,433.85 158.93,433.84 160.02,433.82C161.11,433.81 162.19,433.79 163.28,433.77C164.37,433.75 165.46,433.73 166.55,433.71C167.64,433.69 168.72,433.67 169.81,433.64C170.9,433.61 171.99,433.58 173.08,433.54C174.17,433.5 175.25,433.46 176.34,433.42C177.43,433.38 178.52,433.33 179.61,433.28C180.7,433.23 181.79,433.17 182.88,433.1C183.97,433.03 185.05,432.96 186.14,432.88C187.23,432.8 188.32,432.71 189.41,432.61C190.5,432.51 191.58,432.41 192.67,432.29C193.76,432.17 194.85,432.04 195.94,431.9C197.03,431.76 198.11,431.61 199.2,431.44C200.29,431.27 201.38,431.08 202.47,430.88C203.56,430.67 204.64,430.45 205.73,430.21C206.82,429.97 207.91,429.71 209,429.42C210.09,429.13 211.18,428.83 212.27,428.49C213.36,428.15 214.45,427.79 215.53,427.39C216.62,426.99 217.72,426.56 218.8,426.1C219.89,425.63 220.98,425.14 222.06,424.6C223.16,424.06 224.25,423.48 225.33,422.86C226.43,422.23 227.51,421.56 228.59,420.85C229.69,420.12 230.78,419.36 231.86,418.54C232.96,417.7 234.06,416.81 235.13,415.88C236.23,414.92 237.32,413.92 238.39,412.86C239.5,411.77 240.59,410.63 241.66,409.43C242.77,408.2 243.85,406.9 244.92,405.56C246.03,404.17 247.12,402.71 248.19,401.2C249.3,399.63 250.38,398 251.45,396.32C252.56,394.57 253.65,392.75 254.72,390.88C255.83,388.93 256.91,386.92 257.98,384.85C259.09,382.7 260.18,380.48 261.25,378.2C262.36,375.83 263.45,373.4 264.52,370.9C265.63,368.31 266.71,365.64 267.78,362.91C268.89,360.08 269.98,357.19 271.05,354.23C272.16,351.17 273.24,348.03 274.31,344.83C275.42,341.53 276.51,338.15 277.58,334.72C278.69,331.18 279.77,327.56 280.84,323.89C281.94,320.11 283.03,316.26 284.11,312.36C285.21,308.35 286.3,304.28 287.38,300.15C288.48,295.92 289.56,291.62 290.64,287.28C291.74,282.84 292.83,278.34 293.91,273.8C295.01,269.17 296.09,264.48 297.17,259.76C298.27,254.96 299.36,250.12 300.44,245.24C301.54,240.29 302.62,235.3 303.7,230.29C304.79,225.23 305.89,220.14 306.97,215.03C308.06,209.89 309.14,204.71 310.23,199.54C311.32,194.35 312.41,189.13 313.5,183.93C314.59,178.73 315.68,173.51 316.77,168.32C317.86,163.15 318.94,157.98 320.03,152.84C321.11,147.74 322.2,142.65 323.3,137.61C324.38,132.63 325.46,127.68 326.56,122.78C327.64,117.97 328.73,113.19 329.83,108.48C330.91,103.88 331.99,99.32 333.09,94.85C334.16,90.51 335.25,86.22 336.36,82.03C337.43,77.99 338.52,74.01 339.63,70.15C340.7,66.45 341.77,62.82 342.89,59.33C343.95,56.01 345.03,52.77 346.16,49.69C347.22,46.8 348.29,43.99 349.42,41.35C350.47,38.91 351.55,36.55 352.69,34.39C353.73,32.42 354.8,30.53 355.95,28.88C356.99,27.4 358.06,26.01 359.22,24.91C360.25,23.93 361.34,23.04 362.48,22.5C363.52,22.01 364.66,21.7 365.75,21.7C366.84,21.7 367.98,22.01 369.02,22.5C370.16,23.04 371.25,23.93 372.28,24.91C373.44,26.01 374.51,27.4 375.55,28.88C376.7,30.53 377.77,32.42 378.81,34.39C379.95,36.55 381.03,38.91 382.08,41.35C383.21,43.99 384.28,46.8 385.34,49.69C386.47,52.77 387.55,56.01 388.61,59.33C389.73,62.82 390.81,66.45 391.88,70.15C392.99,74.01 394.07,77.99 395.14,82.03C396.25,86.22 397.34,90.51 398.41,94.85C399.51,99.32 400.59,103.88 401.67,108.48C402.77,113.19 403.86,117.97 404.94,122.78C406.04,127.68 407.12,132.63 408.2,137.61C409.3,142.65 410.39,147.74 411.47,152.84C412.56,157.98 413.64,163.15 414.73,168.32C415.82,173.51 416.91,178.73 418,183.93C419.09,189.13 420.18,194.35 421.27,199.54C422.36,204.71 423.44,209.89 424.53,215.03C425.61,220.14 426.71,225.23 427.8,230.29C428.88,235.3 429.96,240.29 431.06,245.24C432.14,250.12 433.23,254.96 434.33,259.76C435.41,264.48 436.49,269.17 437.59,273.8C438.67,278.34 439.76,282.84 440.86,287.28C441.94,291.62 443.03,295.92 444.13,300.15C445.21,304.28 446.29,308.35 447.39,312.36C448.46,316.26 449.56,320.11 450.66,323.89C451.73,327.56 452.81,331.18 453.92,334.72C454.99,338.15 456.08,341.53 457.19,344.83C458.26,348.03 459.34,351.17 460.45,354.23C461.52,357.19 462.61,360.08 463.72,362.91C464.79,365.64 465.87,368.31 466.98,370.9C468.05,373.4 469.14,375.83 470.25,378.2C471.32,380.48 472.41,382.7 473.52,384.85C474.59,386.92 475.67,388.93 476.78,390.88C477.85,392.75 478.94,394.57 480.05,396.32C481.12,398 482.2,399.63 483.31,401.2C484.38,402.71 485.47,404.17 486.58,405.56C487.65,406.9 488.73,408.2 489.84,409.43C490.91,410.63 492,411.77 493.11,412.86C494.18,413.92 495.28,414.92 496.38,415.88C497.45,416.81 498.54,417.7 499.64,418.54C500.72,419.36 501.81,420.12 502.91,420.85C503.99,421.56 505.07,422.23 506.17,422.86C507.25,423.48 508.34,424.06 509.44,424.6C510.52,425.14 511.61,425.63 512.7,426.1C513.78,426.56 514.88,426.99 515.97,427.39C517.05,427.79 518.14,428.15 519.23,428.49C520.32,428.83 521.41,429.13 522.5,429.42C523.59,429.71 524.68,429.97 525.77,430.21C526.86,430.45 527.94,430.67 529.03,430.88C530.12,431.08 531.21,431.27 532.3,431.44C533.39,431.61 534.47,431.76 535.56,431.9C536.65,432.04 537.74,432.17 538.83,432.29C539.92,432.41 541,432.51 542.09,432.61C543.18,432.71 544.27,432.8 545.36,432.88C546.45,432.96 547.54,433.03 548.63,433.1C549.72,433.17 550.8,433.23 551.89,433.28C552.98,433.33 554.07,433.38 555.16,433.42C556.25,433.46 557.33,433.5 558.42,433.54C559.51,433.58 560.6,433.61 561.69,433.64C562.78,433.67 563.86,433.69 564.95,433.71C566.04,433.73 567.13,433.75 568.22,433.77C569.31,433.79 570.39,433.81 571.48,433.82C572.57,433.84 573.66,433.85 574.75,433.86C575.84,433.87 576.93,433.88 578.02,433.89C579.11,433.9 580.19,433.91 581.28,433.92C582.37,433.93 583.46,433.93 584.55,433.94C585.64,433.94 586.72,433.95 587.81,433.95C588.9,433.95 589.99,433.96 591.08,433.96C592.17,433.96 593.25,433.97 594.34,433.97C595.43,433.97 596.52,433.98 597.61,433.98C598.7,433.98 599.79,433.98 600.88,433.98C601.97,433.98 603.05,433.99 604.14,433.99C605.23,433.99 606.32,433.99 607.41,433.99C608.5,433.99 609.58,433.99 610.67,433.99C611.76,433.99 612.85,433.99 613.94,433.99C615.03,433.99 616.11,434 617.2,434C618.29,434 619.38,434 620.47,434C621.56,434 622.64,434 623.73,434Q624.82,434 627,434" style="fill: rgb(102, 102, 102); fill-opacity: 0.2; stroke-width: 0;"/></g></g><g class="errorbars"/><g class="lines"><path class="js-line" d="M0,434Q2.18,434 3.27,434C4.36,434 5.44,434 6.53,434C7.62,434 8.71,434 9.8,434C10.89,434 11.97,434 13.06,434C14.15,434 15.24,434 16.33,434C17.42,434 18.5,434 19.59,434C20.68,434 21.77,434 22.86,434C23.95,434 25.04,434 26.13,434C27.22,434 28.3,434 29.39,434C30.48,434 31.57,434 32.66,434C33.75,434 34.83,434 35.92,434C37.01,434 38.1,434 39.19,434C40.28,434 41.36,434 42.45,434C43.54,434 44.63,434 45.72,434C46.81,434 47.89,434 48.98,434C50.07,434 51.16,434 52.25,434C53.34,434 54.43,434 55.52,434C56.61,434 57.69,434 58.78,434C59.87,434 60.96,434 62.05,434C63.14,434 64.22,434 65.31,434C66.4,434 67.49,434 68.58,434C69.67,434 70.75,434 71.84,434C72.93,434 74.02,434 75.11,434C76.2,434 77.29,434 78.38,434C79.47,434 80.55,434 81.64,434C82.73,434 83.82,434 84.91,434C86,434 87.08,434 88.17,434C89.26,434 90.35,434 91.44,434C92.53,434 93.61,434 94.7,434C95.79,434 96.88,434 97.97,434C99.06,434 100.14,434 101.23,434C102.32,434 103.41,434 104.5,434C105.59,434 106.68,434 107.77,434C108.86,434 109.94,434 111.03,434C112.12,434 113.21,434 114.3,434C115.39,434 116.47,433.99 117.56,433.99C118.65,433.99 119.74,433.99 120.83,433.99C121.92,433.99 123,433.99 124.09,433.99C125.18,433.99 126.27,433.99 127.36,433.99C128.45,433.99 129.54,433.98 130.63,433.98C131.72,433.98 132.8,433.98 133.89,433.98C134.98,433.98 136.07,433.97 137.16,433.97C138.25,433.97 139.33,433.96 140.42,433.96C141.51,433.96 142.6,433.95 143.69,433.95C144.78,433.95 145.86,433.94 146.95,433.94C148.04,433.93 149.13,433.93 150.22,433.92C151.31,433.91 152.39,433.9 153.48,433.89C154.57,433.88 155.66,433.87 156.75,433.86C157.84,433.85 158.93,433.84 160.02,433.82C161.11,433.81 162.19,433.79 163.28,433.77C164.37,433.75 165.46,433.73 166.55,433.71C167.64,433.69 168.72,433.67 169.81,433.64C170.9,433.61 171.99,433.58 173.08,433.54C174.17,433.5 175.25,433.46 176.34,433.42C177.43,433.38 178.52,433.33 179.61,433.28C180.7,433.23 181.79,433.17 182.88,433.1C183.97,433.03 185.05,432.96 186.14,432.88C187.23,432.8 188.32,432.71 189.41,432.61C190.5,432.51 191.58,432.41 192.67,432.29C193.76,432.17 194.85,432.04 195.94,431.9C197.03,431.76 198.11,431.61 199.2,431.44C200.29,431.27 201.38,431.08 202.47,430.88C203.56,430.67 204.64,430.45 205.73,430.21C206.82,429.97 207.91,429.71 209,429.42C210.09,429.13 211.18,428.83 212.27,428.49C213.36,428.15 214.45,427.79 215.53,427.39C216.62,426.99 217.72,426.56 218.8,426.1C219.89,425.63 220.98,425.14 222.06,424.6C223.16,424.06 224.25,423.48 225.33,422.86C226.43,422.23 227.51,421.56 228.59,420.85C229.69,420.12 230.78,419.36 231.86,418.54C232.96,417.7 234.06,416.81 235.13,415.88C236.23,414.92 237.32,413.92 238.39,412.86C239.5,411.77 240.59,410.63 241.66,409.43C242.77,408.2 243.85,406.9 244.92,405.56C246.03,404.17 247.12,402.71 248.19,401.2C249.3,399.63 250.38,398 251.45,396.32C252.56,394.57 253.65,392.75 254.72,390.88C255.83,388.93 256.91,386.92 257.98,384.85C259.09,382.7 260.18,380.48 261.25,378.2C262.36,375.83 263.45,373.4 264.52,370.9C265.63,368.31 266.71,365.64 267.78,362.91C268.89,360.08 269.98,357.19 271.05,354.23C272.16,351.17 273.24,348.03 274.31,344.83C275.42,341.53 276.51,338.15 277.58,334.72C278.69,331.18 279.77,327.56 280.84,323.89C281.94,320.11 283.03,316.26 284.11,312.36C285.21,308.35 286.3,304.28 287.38,300.15C288.48,295.92 289.56,291.62 290.64,287.28C291.74,282.84 292.83,278.34 293.91,273.8C295.01,269.17 296.09,264.48 297.17,259.76C298.27,254.96 299.36,250.12 300.44,245.24C301.54,240.29 302.62,235.3 303.7,230.29C304.79,225.23 305.89,220.14 306.97,215.03C308.06,209.89 309.14,204.71 310.23,199.54C311.32,194.35 312.41,189.13 313.5,183.93C314.59,178.73 315.68,173.51 316.77,168.32C317.86,163.15 318.94,157.98 320.03,152.84C321.11,147.74 322.2,142.65 323.3,137.61C324.38,132.63 325.46,127.68 326.56,122.78C327.64,117.97 328.73,113.19 329.83,108.48C330.91,103.88 331.99,99.32 333.09,94.85C334.16,90.51 335.25,86.22 336.36,82.03C337.43,77.99 338.52,74.01 339.63,70.15C340.7,66.45 341.77,62.82 342.89,59.33C343.95,56.01 345.03,52.77 346.16,49.69C347.22,46.8 348.29,43.99 349.42,41.35C350.47,38.91 351.55,36.55 352.69,34.39C353.73,32.42 354.8,30.53 355.95,28.88C356.99,27.4 358.06,26.01 359.22,24.91C360.25,23.93 361.34,23.04 362.48,22.5C363.52,22.01 364.66,21.7 365.75,21.7C366.84,21.7 367.98,22.01 369.02,22.5C370.16,23.04 371.25,23.93 372.28,24.91C373.44,26.01 374.51,27.4 375.55,28.88C376.7,30.53 377.77,32.42 378.81,34.39C379.95,36.55 381.03,38.91 382.08,41.35C383.21,43.99 384.28,46.8 385.34,49.69C386.47,52.77 387.55,56.01 388.61,59.33C389.73,62.82 390.81,66.45 391.88,70.15C392.99,74.01 394.07,77.99 395.14,82.03C396.25,86.22 397.34,90.51 398.41,94.85C399.51,99.32 400.59,103.88 401.67,108.48C402.77,113.19 403.86,117.97 404.94,122.78C406.04,127.68 407.12,132.63 408.2,137.61C409.3,142.65 410.39,147.74 411.47,152.84C412.56,157.98 413.64,163.15 414.73,168.32C415.82,173.51 416.91,178.73 418,183.93C419.09,189.13 420.18,194.35 421.27,199.54C422.36,204.71 423.44,209.89 424.53,215.03C425.61,220.14 426.71,225.23 427.8,230.29C428.88,235.3 429.96,240.29 431.06,245.24C432.14,250.12 433.23,254.96 434.33,259.76C435.41,264.48 436.49,269.17 437.59,273.8C438.67,278.34 439.76,282.84 440.86,287.28C441.94,291.62 443.03,295.92 444.13,300.15C445.21,304.28 446.29,308.35 447.39,312.36C448.46,316.26 449.56,320.11 450.66,323.89C451.73,327.56 452.81,331.18 453.92,334.72C454.99,338.15 456.08,341.53 457.19,344.83C458.26,348.03 459.34,351.17 460.45,354.23C461.52,357.19 462.61,360.08 463.72,362.91C464.79,365.64 465.87,368.31 466.98,370.9C468.05,373.4 469.14,375.83 470.25,378.2C471.32,380.48 472.41,382.7 473.52,384.85C474.59,386.92 475.67,388.93 476.78,390.88C477.85,392.75 478.94,394.57 480.05,396.32C481.12,398 482.2,399.63 483.31,401.2C484.38,402.71 485.47,404.17 486.58,405.56C487.65,406.9 488.73,408.2 489.84,409.43C490.91,410.63 492,411.77 493.11,412.86C494.18,413.92 495.28,414.92 496.38,415.88C497.45,416.81 498.54,417.7 499.64,418.54C500.72,419.36 501.81,420.12 502.91,420.85C503.99,421.56 505.07,422.23 506.17,422.86C507.25,423.48 508.34,424.06 509.44,424.6C510.52,425.14 511.61,425.63 512.7,426.1C513.78,426.56 514.88,426.99 515.97,427.39C517.05,427.79 518.14,428.15 519.23,428.49C520.32,428.83 521.41,429.13 522.5,429.42C523.59,429.71 524.68,429.97 525.77,430.21C526.86,430.45 527.94,430.67 529.03,430.88C530.12,431.08 531.21,431.27 532.3,431.44C533.39,431.61 534.47,431.76 535.56,431.9C536.65,432.04 537.74,432.17 538.83,432.29C539.92,432.41 541,432.51 542.09,432.61C543.18,432.71 544.27,432.8 545.36,432.88C546.45,432.96 547.54,433.03 548.63,433.1C549.72,433.17 550.8,433.23 551.89,433.28C552.98,433.33 554.07,433.38 555.16,433.42C556.25,433.46 557.33,433.5 558.42,433.54C559.51,433.58 560.6,433.61 561.69,433.64C562.78,433.67 563.86,433.69 564.95,433.71C566.04,433.73 567.13,433.75 568.22,433.77C569.31,433.79 570.39,433.81 571.48,433.82C572.57,433.84 573.66,433.85 574.75,433.86C575.84,433.87 576.93,433.88 578.02,433.89C579.11,433.9 580.19,433.91 581.28,433.92C582.37,433.93 583.46,433.93 584.55,433.94C585.64,433.94 586.72,433.95 587.81,433.95C588.9,433.95 589.99,433.96 591.08,433.96C592.17,433.96 593.25,433.97 594.34,433.97C595.43,433.97 596.52,433.98 597.61,433.98C598.7,433.98 599.79,433.98 600.88,433.98C601.97,433.98 603.05,433.99 604.14,433.99C605.23,433.99 606.32,433.99 607.41,433.99C608.5,433.99 609.58,433.99 610.67,433.99C611.76,433.99 612.85,433.99 613.94,433.99C615.03,433.99 616.11,434 617.2,434C618.29,434 619.38,434 620.47,434C621.56,434 622.64,434 623.73,434Q624.82,434 627,434" style="vector-effect: non-scaling-stroke; fill: none; stroke: rgb(102, 102, 102); stroke-opacity: 1; stroke-width: 2px; opacity: 1;"/></g><g class="points"/><g class="text"/></g><g class="trace scatter tracef621f7" style="stroke-miterlimit: 2;"><g class="fills"><g><path class="js-fill" d="M627,434L0,434L0,433.91Q2.18,433.9 3.27,433.89C4.36,433.88 5.44,433.88 6.53,433.87C7.62,433.86 8.71,433.86 9.8,433.85C10.89,433.84 11.97,433.83 13.06,433.82C14.15,433.81 15.24,433.8 16.33,433.79C17.42,433.78 18.5,433.77 19.59,433.76C20.68,433.75 21.77,433.73 22.86,433.72C23.95,433.7 25.04,433.69 26.13,433.67C27.22,433.65 28.3,433.63 29.39,433.61C30.48,433.59 31.57,433.57 32.66,433.55C33.75,433.53 34.83,433.5 35.92,433.48C37.01,433.45 38.1,433.43 39.19,433.4C40.28,433.37 41.36,433.33 42.45,433.3C43.54,433.27 44.63,433.24 45.72,433.2C46.81,433.16 47.89,433.12 48.98,433.08C50.07,433.04 51.16,432.99 52.25,432.94C53.34,432.89 54.43,432.84 55.52,432.78C56.61,432.72 57.69,432.66 58.78,432.6C59.87,432.54 60.96,432.47 62.05,432.4C63.14,432.33 64.22,432.25 65.31,432.17C66.4,432.09 67.49,432.01 68.58,431.92C69.67,431.83 70.75,431.73 71.84,431.63C72.93,431.53 74.02,431.42 75.11,431.31C76.2,431.2 77.29,431.08 78.38,430.95C79.47,430.82 80.55,430.68 81.64,430.54C82.73,430.4 83.82,430.25 84.91,430.09C86,429.93 87.08,429.76 88.17,429.59C89.26,429.41 90.35,429.23 91.44,429.04C92.53,428.84 93.61,428.64 94.7,428.42C95.79,428.2 96.88,427.97 97.97,427.73C99.06,427.49 100.14,427.24 101.23,426.98C102.32,426.72 103.41,426.44 104.5,426.15C105.59,425.86 106.68,425.55 107.77,425.23C108.86,424.91 109.94,424.58 111.03,424.23C112.12,423.88 113.21,423.51 114.3,423.13C115.39,422.74 116.48,422.34 117.56,421.92C118.65,421.5 119.74,421.07 120.83,420.61C121.92,420.15 123.01,419.68 124.09,419.18C125.18,418.68 126.27,418.16 127.36,417.62C128.45,417.08 129.55,416.51 130.63,415.93C131.72,415.34 132.81,414.74 133.89,414.11C134.98,413.47 136.08,412.81 137.16,412.13C138.25,411.44 139.34,410.73 140.42,410C141.52,409.26 142.61,408.5 143.69,407.71C144.78,406.91 145.87,406.09 146.95,405.25C148.05,404.4 149.14,403.52 150.22,402.62C151.32,401.71 152.4,400.76 153.48,399.8C154.58,398.82 155.67,397.83 156.75,396.8C157.85,395.76 158.94,394.69 160.02,393.6C161.12,392.49 162.2,391.36 163.28,390.21C164.38,389.04 165.47,387.84 166.55,386.61C167.65,385.37 168.73,384.09 169.81,382.8C170.91,381.48 172,380.14 173.08,378.78C174.18,377.4 175.26,375.99 176.34,374.56C177.44,373.1 178.53,371.62 179.61,370.11C180.71,368.58 181.8,367.03 182.88,365.46C183.98,363.86 185.06,362.24 186.14,360.6C187.24,358.93 188.33,357.23 189.41,355.52C190.51,353.78 191.59,352.02 192.67,350.24C193.77,348.43 194.86,346.61 195.94,344.76C197.04,342.89 198.12,341 199.2,339.09C200.3,337.16 201.39,335.2 202.47,333.23C203.56,331.24 204.65,329.23 205.73,327.2C206.82,325.15 207.92,323.08 209,321C210.1,318.9 211.19,316.78 212.27,314.65C213.36,312.5 214.45,310.34 215.53,308.16C216.62,305.97 217.71,303.76 218.8,301.54C219.89,299.31 220.98,297.08 222.06,294.83C223.15,292.57 224.24,290.3 225.33,288.02C226.42,285.74 227.5,283.44 228.59,281.15C229.68,278.85 230.77,276.54 231.86,274.23C232.95,271.92 234.04,269.6 235.13,267.28C236.22,264.97 237.3,262.65 238.39,260.34C239.48,258.03 240.57,255.72 241.66,253.42C242.75,251.13 243.83,248.84 244.92,246.56C246.01,244.29 247.1,242.02 248.19,239.77C249.27,237.53 250.36,235.3 251.45,233.08C252.53,230.88 253.63,228.69 254.72,226.52C255.8,224.37 256.89,222.23 257.98,220.12C259.06,218.03 260.15,215.95 261.25,213.9C262.33,211.88 263.42,209.88 264.52,207.9C265.6,205.96 266.68,204.03 267.78,202.14C268.86,200.28 269.95,198.44 271.05,196.64C272.13,194.87 273.21,193.13 274.31,191.43C275.39,189.77 276.48,188.13 277.58,186.54C278.66,184.99 279.74,183.46 280.84,181.99C281.91,180.55 283,179.15 284.11,177.8C285.18,176.49 286.27,175.21 287.38,173.99C288.45,172.81 289.53,171.66 290.64,170.58C291.71,169.53 292.8,168.53 293.91,167.59C294.98,166.68 296.06,165.82 297.17,165.03C298.24,164.27 299.33,163.55 300.44,162.92C301.51,162.31 302.6,161.75 303.7,161.27C304.78,160.81 305.87,160.41 306.97,160.09C308.05,159.78 309.14,159.53 310.23,159.37C311.31,159.21 312.41,159.13 313.5,159.13C314.59,159.13 315.69,159.21 316.77,159.37C317.86,159.53 318.95,159.78 320.03,160.09C321.13,160.41 322.22,160.81 323.3,161.27C324.4,161.75 325.49,162.31 326.56,162.92C327.67,163.55 328.76,164.27 329.83,165.03C330.94,165.82 332.02,166.68 333.09,167.59C334.2,168.53 335.29,169.53 336.36,170.58C337.47,171.66 338.56,172.81 339.63,173.99C340.74,175.21 341.82,176.49 342.89,177.8C343.99,179.15 345.09,180.55 346.16,181.99C347.26,183.46 348.34,184.99 349.42,186.54C350.52,188.13 351.61,189.77 352.69,191.43C353.79,193.13 354.87,194.87 355.95,196.64C357.05,198.44 358.14,200.28 359.22,202.14C360.32,204.03 361.4,205.96 362.48,207.9C363.58,209.88 364.67,211.88 365.75,213.9C366.85,215.95 367.94,218.03 369.02,220.12C370.11,222.23 371.2,224.37 372.28,226.52C373.37,228.69 374.47,230.88 375.55,233.08C376.64,235.3 377.73,237.53 378.81,239.77C379.9,242.02 380.99,244.29 382.08,246.56C383.17,248.84 384.25,251.13 385.34,253.42C386.43,255.72 387.52,258.03 388.61,260.34C389.7,262.65 390.79,264.97 391.88,267.28C392.97,269.6 394.05,271.92 395.14,274.23C396.23,276.54 397.32,278.85 398.41,281.15C399.5,283.44 400.58,285.74 401.67,288.02C402.76,290.3 403.85,292.57 404.94,294.83C406.02,297.08 407.11,299.31 408.2,301.54C409.29,303.76 410.38,305.97 411.47,308.16C412.55,310.34 413.64,312.5 414.73,314.65C415.81,316.78 416.9,318.9 418,321C419.08,323.08 420.18,325.15 421.27,327.2C422.35,329.23 423.44,331.24 424.53,333.23C425.61,335.2 426.7,337.16 427.8,339.09C428.88,341 429.96,342.89 431.06,344.76C432.14,346.61 433.23,348.43 434.33,350.24C435.41,352.02 436.49,353.78 437.59,355.52C438.67,357.23 439.76,358.93 440.86,360.6C441.94,362.24 443.03,363.86 444.13,365.46C445.21,367.03 446.29,368.58 447.39,370.11C448.47,371.62 449.56,373.1 450.66,374.56C451.74,375.99 452.82,377.4 453.92,378.78C455,380.14 456.09,381.48 457.19,382.8C458.27,384.09 459.35,385.37 460.45,386.61C461.53,387.84 462.62,389.04 463.72,390.21C464.8,391.36 465.88,392.49 466.98,393.6C468.06,394.69 469.15,395.76 470.25,396.8C471.33,397.83 472.42,398.82 473.52,399.8C474.6,400.76 475.68,401.71 476.78,402.62C477.86,403.52 478.95,404.4 480.05,405.25C481.13,406.09 482.22,406.91 483.31,407.71C484.39,408.5 485.48,409.26 486.58,410C487.66,410.73 488.75,411.44 489.84,412.13C490.92,412.81 492.01,413.47 493.11,414.11C494.19,414.74 495.29,415.34 496.38,415.93C497.46,416.51 498.55,417.08 499.64,417.62C500.72,418.16 501.82,418.68 502.91,419.18C503.99,419.68 505.08,420.15 506.17,420.61C507.26,421.07 508.35,421.5 509.44,421.92C510.52,422.34 511.61,422.74 512.7,423.13C513.79,423.51 514.88,423.88 515.97,424.23C517.06,424.58 518.14,424.91 519.23,425.23C520.32,425.55 521.41,425.86 522.5,426.15C523.59,426.44 524.68,426.72 525.77,426.98C526.86,427.24 527.94,427.49 529.03,427.73C530.12,427.97 531.21,428.2 532.3,428.42C533.39,428.64 534.47,428.84 535.56,429.04C536.65,429.23 537.74,429.41 538.83,429.59C539.92,429.76 541,429.93 542.09,430.09C543.18,430.25 544.27,430.4 545.36,430.54C546.45,430.68 547.54,430.82 548.63,430.95C549.72,431.08 550.8,431.2 551.89,431.31C552.98,431.42 554.07,431.53 555.16,431.63C556.25,431.73 557.33,431.83 558.42,431.92C559.51,432.01 560.6,432.09 561.69,432.17C562.78,432.25 563.86,432.33 564.95,432.4C566.04,432.47 567.13,432.54 568.22,432.6C569.31,432.66 570.39,432.72 571.48,432.78C572.57,432.84 573.66,432.89 574.75,432.94C575.84,432.99 576.93,433.04 578.02,433.08C579.11,433.12 580.19,433.16 581.28,433.2C582.37,433.24 583.46,433.27 584.55,433.3C585.64,433.33 586.72,433.37 587.81,433.4C588.9,433.43 589.99,433.45 591.08,433.48C592.17,433.5 593.25,433.53 594.34,433.55C595.43,433.57 596.52,433.59 597.61,433.61C598.7,433.63 599.79,433.65 600.88,433.67C601.97,433.69 603.05,433.71 604.14,433.72C605.23,433.74 606.32,433.75 607.41,433.76C608.5,433.77 609.58,433.78 610.67,433.79C611.76,433.8 612.85,433.81 613.94,433.82C615.03,433.83 616.11,433.84 617.2,433.85C618.29,433.86 619.38,433.86 620.47,433.87C621.56,433.88 622.64,433.88 623.73,433.89Q624.82,433.9 627,433.91" style="fill: rgb(153, 153, 153); fill-opacity: 0.2; stroke-width: 0;"/></g></g><g class="errorbars"/><g class="lines"><path class="js-line" d="M0,433.91Q2.18,433.9 3.27,433.89C4.36,433.88 5.44,433.88 6.53,433.87C7.62,433.86 8.71,433.86 9.8,433.85C10.89,433.84 11.97,433.83 13.06,433.82C14.15,433.81 15.24,433.8 16.33,433.79C17.42,433.78 18.5,433.77 19.59,433.76C20.68,433.75 21.77,433.73 22.86,433.72C23.95,433.7 25.04,433.69 26.13,433.67C27.22,433.65 28.3,433.63 29.39,433.61C30.48,433.59 31.57,433.57 32.66,433.55C33.75,433.53 34.83,433.5 35.92,433.48C37.01,433.45 38.1,433.43 39.19,433.4C40.28,433.37 41.36,433.33 42.45,433.3C43.54,433.27 44.63,433.24 45.72,433.2C46.81,433.16 47.89,433.12 48.98,433.08C50.07,433.04 51.16,432.99 52.25,432.94C53.34,432.89 54.43,432.84 55.52,432.78C56.61,432.72 57.69,432.66 58.78,432.6C59.87,432.54 60.96,432.47 62.05,432.4C63.14,432.33 64.22,432.25 65.31,432.17C66.4,432.09 67.49,432.01 68.58,431.92C69.67,431.83 70.75,431.73 71.84,431.63C72.93,431.53 74.02,431.42 75.11,431.31C76.2,431.2 77.29,431.08 78.38,430.95C79.47,430.82 80.55,430.68 81.64,430.54C82.73,430.4 83.82,430.25 84.91,430.09C86,429.93 87.08,429.76 88.17,429.59C89.26,429.41 90.35,429.23 91.44,429.04C92.53,428.84 93.61,428.64 94.7,428.42C95.79,428.2 96.88,427.97 97.97,427.73C99.06,427.49 100.14,427.24 101.23,426.98C102.32,426.72 103.41,426.44 104.5,426.15C105.59,425.86 106.68,425.55 107.77,425.23C108.86,424.91 109.94,424.58 111.03,424.23C112.12,423.88 113.21,423.51 114.3,423.13C115.39,422.74 116.48,422.34 117.56,421.92C118.65,421.5 119.74,421.07 120.83,420.61C121.92,420.15 123.01,419.68 124.09,419.18C125.18,418.68 126.27,418.16 127.36,417.62C128.45,417.08 129.55,416.51 130.63,415.93C131.72,415.34 132.81,414.74 133.89,414.11C134.98,413.47 136.08,412.81 137.16,412.13C138.25,411.44 139.34,410.73 140.42,410C141.52,409.26 142.61,408.5 143.69,407.71C144.78,406.91 145.87,406.09 146.95,405.25C148.05,404.4 149.14,403.52 150.22,402.62C151.32,401.71 152.4,400.76 153.48,399.8C154.58,398.82 155.67,397.83 156.75,396.8C157.85,395.76 158.94,394.69 160.02,393.6C161.12,392.49 162.2,391.36 163.28,390.21C164.38,389.04 165.47,387.84 166.55,386.61C167.65,385.37 168.73,384.09 169.81,382.8C170.91,381.48 172,380.14 173.08,378.78C174.18,377.4 175.26,375.99 176.34,374.56C177.44,373.1 178.53,371.62 179.61,370.11C180.71,368.58 181.8,367.03 182.88,365.46C183.98,363.86 185.06,362.24 186.14,360.6C187.24,358.93 188.33,357.23 189.41,355.52C190.51,353.78 191.59,352.02 192.67,350.24C193.77,348.43 194.86,346.61 195.94,344.76C197.04,342.89 198.12,341 199.2,339.09C200.3,337.16 201.39,335.2 202.47,333.23C203.56,331.24 204.65,329.23 205.73,327.2C206.82,325.15 207.92,323.08 209,321C210.1,318.9 211.19,316.78 212.27,314.65C213.36,312.5 214.45,310.34 215.53,308.16C216.62,305.97 217.71,303.76 218.8,301.54C219.89,299.31 220.98,297.08 222.06,294.83C223.15,292.57 224.24,290.3 225.33,288.02C226.42,285.74 227.5,283.44 228.59,281.15C229.68,278.85 230.77,276.54 231.86,274.23C232.95,271.92 234.04,269.6 235.13,267.28C236.22,264.97 237.3,262.65 238.39,260.34C239.48,258.03 240.57,255.72 241.66,253.42C242.75,251.13 243.83,248.84 244.92,246.56C246.01,244.29 247.1,242.02 248.19,239.77C249.27,237.53 250.36,235.3 251.45,233.08C252.53,230.88 253.63,228.69 254.72,226.52C255.8,224.37 256.89,222.23 257.98,220.12C259.06,218.03 260.15,215.95 261.25,213.9C262.33,211.88 263.42,209.88 264.52,207.9C265.6,205.96 266.68,204.03 267.78,202.14C268.86,200.28 269.95,198.44 271.05,196.64C272.13,194.87 273.21,193.13 274.31,191.43C275.39,189.77 276.48,188.13 277.58,186.54C278.66,184.99 279.74,183.46 280.84,181.99C281.91,180.55 283,179.15 284.11,177.8C285.18,176.49 286.27,175.21 287.38,173.99C288.45,172.81 289.53,171.66 290.64,170.58C291.71,169.53 292.8,168.53 293.91,167.59C294.98,166.68 296.06,165.82 297.17,165.03C298.24,164.27 299.33,163.55 300.44,162.92C301.51,162.31 302.6,161.75 303.7,161.27C304.78,160.81 305.87,160.41 306.97,160.09C308.05,159.78 309.14,159.53 310.23,159.37C311.31,159.21 312.41,159.13 313.5,159.13C314.59,159.13 315.69,159.21 316.77,159.37C317.86,159.53 318.95,159.78 320.03,160.09C321.13,160.41 322.22,160.81 323.3,161.27C324.4,161.75 325.49,162.31 326.56,162.92C327.67,163.55 328.76,164.27 329.83,165.03C330.94,165.82 332.02,166.68 333.09,167.59C334.2,168.53 335.29,169.53 336.36,170.58C337.47,171.66 338.56,172.81 339.63,173.99C340.74,175.21 341.82,176.49 342.89,177.8C343.99,179.15 345.09,180.55 346.16,181.99C347.26,183.46 348.34,184.99 349.42,186.54C350.52,188.13 351.61,189.77 352.69,191.43C353.79,193.13 354.87,194.87 355.95,196.64C357.05,198.44 358.14,200.28 359.22,202.14C360.32,204.03 361.4,205.96 362.48,207.9C363.58,209.88 364.67,211.88 365.75,213.9C366.85,215.95 367.94,218.03 369.02,220.12C370.11,222.23 371.2,224.37 372.28,226.52C373.37,228.69 374.47,230.88 375.55,233.08C376.64,235.3 377.73,237.53 378.81,239.77C379.9,242.02 380.99,244.29 382.08,246.56C383.17,248.84 384.25,251.13 385.34,253.42C386.43,255.72 387.52,258.03 388.61,260.34C389.7,262.65 390.79,264.97 391.88,267.28C392.97,269.6 394.05,271.92 395.14,274.23C396.23,276.54 397.32,278.85 398.41,281.15C399.5,283.44 400.58,285.74 401.67,288.02C402.76,290.3 403.85,292.57 404.94,294.83C406.02,297.08 407.11,299.31 408.2,301.54C409.29,303.76 410.38,305.97 411.47,308.16C412.55,310.34 413.64,312.5 414.73,314.65C415.81,316.78 416.9,318.9 418,321C419.08,323.08 420.18,325.15 421.27,327.2C422.35,329.23 423.44,331.24 424.53,333.23C425.61,335.2 426.7,337.16 427.8,339.09C428.88,341 429.96,342.89 431.06,344.76C432.14,346.61 433.23,348.43 434.33,350.24C435.41,352.02 436.49,353.78 437.59,355.52C438.67,357.23 439.76,358.93 440.86,360.6C441.94,362.24 443.03,363.86 444.13,365.46C445.21,367.03 446.29,368.58 447.39,370.11C448.47,371.62 449.56,373.1 450.66,374.56C451.74,375.99 452.82,377.4 453.92,378.78C455,380.14 456.09,381.48 457.19,382.8C458.27,384.09 459.35,385.37 460.45,386.61C461.53,387.84 462.62,389.04 463.72,390.21C464.8,391.36 465.88,392.49 466.98,393.6C468.06,394.69 469.15,395.76 470.25,396.8C471.33,397.83 472.42,398.82 473.52,399.8C474.6,400.76 475.68,401.71 476.78,402.62C477.86,403.52 478.95,404.4 480.05,405.25C481.13,406.09 482.22,406.91 483.31,407.71C484.39,408.5 485.48,409.26 486.58,410C487.66,410.73 488.75,411.44 489.84,412.13C490.92,412.81 492.01,413.47 493.11,414.11C494.19,414.74 495.29,415.34 496.38,415.93C497.46,416.51 498.55,417.08 499.64,417.62C500.72,418.16 501.82,418.68 502.91,419.18C503.99,419.68 505.08,420.15 506.17,420.61C507.26,421.07 508.35,421.5 509.44,421.92C510.52,422.34 511.61,422.74 512.7,423.13C513.79,423.51 514.88,423.88 515.97,424.23C517.06,424.58 518.14,424.91 519.23,425.23C520.32,425.55 521.41,425.86 522.5,426.15C523.59,426.44 524.68,426.72 525.77,426.98C526.86,427.24 527.94,427.49 529.03,427.73C530.12,427.97 531.21,428.2 532.3,428.42C533.39,428.64 534.47,428.84 535.56,429.04C536.65,429.23 537.74,429.41 538.83,429.59C539.92,429.76 541,429.93 542.09,430.09C543.18,430.25 544.27,430.4 545.36,430.54C546.45,430.68 547.54,430.82 548.63,430.95C549.72,431.08 550.8,431.2 551.89,431.31C552.98,431.42 554.07,431.53 555.16,431.63C556.25,431.73 557.33,431.83 558.42,431.92C559.51,432.01 560.6,432.09 561.69,432.17C562.78,432.25 563.86,432.33 564.95,432.4C566.04,432.47 567.13,432.54 568.22,432.6C569.31,432.66 570.39,432.72 571.48,432.78C572.57,432.84 573.66,432.89 574.75,432.94C575.84,432.99 576.93,433.04 578.02,433.08C579.11,433.12 580.19,433.16 581.28,433.2C582.37,433.24 583.46,433.27 584.55,433.3C585.64,433.33 586.72,433.37 587.81,433.4C588.9,433.43 589.99,433.45 591.08,433.48C592.17,433.5 593.25,433.53 594.34,433.55C595.43,433.57 596.52,433.59 597.61,433.61C598.7,433.63 599.79,433.65 600.88,433.67C601.97,433.69 603.05,433.71 604.14,433.72C605.23,433.74 606.32,433.75 607.41,433.76C608.5,433.77 609.58,433.78 610.67,433.79C611.76,433.8 612.85,433.81 613.94,433.82C615.03,433.83 616.11,433.84 617.2,433.85C618.29,433.86 619.38,433.86 620.47,433.87C621.56,433.88 622.64,433.88 623.73,433.89Q624.82,433.9 627,433.91" style="vector-effect: non-scaling-stroke; fill: none; stroke: rgb(153, 153, 153); stroke-opacity: 1; stroke-width: 2px; opacity: 1;"/></g><g class="points"/><g class="text"/></g></g></g><g class="overplot"/><path class="xlines-above crisp" d="M0,0" style="fill: none;"/><path class="ylines-above crisp" d="M0,0" style="fill: none;"/><g class="overlines-above"/><g class="xaxislayer-above"><g class="xtick"><text text-anchor="middle" x="0" y="472" transform="translate(60,0)" style="font-family: 'Open Sans', verdana, arial, sans-serif; font-size: 12px; fill: rgb(68, 68, 68); fill-opacity: 1; white-space: pre;">−4</text></g><g class="xtick"><text text-anchor="middle" x="0" y="472" transform="translate(164.5,0)" style="font-family: 'Open Sans', verdana, arial, sans-serif; font-size: 12px; fill: rgb(68, 68, 68); fill-opacity: 1; white-space: pre;">−2</text></g><g class="xtick"><text text-anchor="middle" x="0" y="472" transform="translate(269,0)" style="font-family: 'Open Sans', verdana, arial, sans-serif; font-size: 12px; fill: rgb(68, 68, 68); fill-opacity: 1; white-space: pre;">0</text></g><g class="xtick"><text text-anchor="middle" x="0" y="472" transform="translate(373.5,0)" style="font-family: 'Open Sans', verdana, arial, sans-serif; font-size: 12px; fill: rgb(68, 68, 68); fill-opacity: 1; white-space: pre;">2</text></g><g class="xtick"><text text-anchor="middle" x="0" y="472" transform="translate(478,0)" style="font-family: 'Open Sans', verdana, arial, sans-serif; font-size: 12px; fill: rgb(68, 68, 68); fill-opacity: 1; white-space: pre;">4</text></g><g class="xtick"><text text-anchor="middle" x="0" y="472" transform="translate(582.5,0)" style="font-family: 'Open Sans', verdana, arial, sans-serif; font-size: 12px; fill: rgb(68, 68, 68); fill-opacity: 1; white-space: pre;">6</text></g><g class="xtick"><text text-anchor="middle" x="0" y="472" transform="translate(687,0)" style="font-family: 'Open Sans', verdana, arial, sans-serif; font-size: 12px; fill: rgb(68, 68, 68); fill-opacity: 1; white-space: pre;">8</text></g></g><g class="yaxislayer-above"><g class="ytick"><text text-anchor="end" x="59" y="4.199999999999999" transform="translate(0,459)" style="font-family: 'Open Sans', verdana, arial, sans-serif; font-size: 12px; fill: rgb(68, 68, 68); fill-opacity: 1; white-space: pre;">0</text></g><g class="ytick"><text text-anchor="end" x="59" y="4.199999999999999" transform="translate(0,407.33)" style="font-family: 'Open Sans', verdana, arial, sans-serif; font-size: 12px; fill: rgb(68, 68, 68); fill-opacity: 1; white-space: pre;">0.05</text></g><g class="ytick"><text text-anchor="end" x="59" y="4.199999999999999" transform="translate(0,355.65)" style="font-family: 'Open Sans', verdana, arial, sans-serif; font-size: 12px; fill: rgb(68, 68, 68); fill-opacity: 1; white-space: pre;">0.1</text></g><g class="ytick"><text text-anchor="end" x="59" y="4.199999999999999" transform="translate(0,303.98)" style="font-family: 'Open Sans', verdana, arial, sans-serif; font-size: 12px; fill: rgb(68, 68, 68); fill-opacity: 1; white-space: pre;">0.15</text></g><g class="ytick"><text text-anchor="end" x="59" y="4.199999999999999" transform="translate(0,252.3)" style="font-family: 'Open Sans', verdana, arial, sans-serif; font-size: 12px; fill: rgb(68, 68, 68); fill-opacity: 1; white-space: pre;">0.2</text></g><g class="ytick"><text text-anchor="end" x="59" y="4.199999999999999" transform="translate(0,200.63)" style="font-family: 'Open Sans', verdana, arial, sans-serif; font-size: 12px; fill: rgb(68, 68, 68); fill-opacity: 1; white-space: pre;">0.25</text></g><g class="ytick"><text text-anchor="end" x="59" y="4.199999999999999" transform="translate(0,148.95999999999998)" style="font-family: 'Open Sans', verdana, arial, sans-serif; font-size: 12px; fill: rgb(68, 68, 68); fill-opacity: 1; white-space: pre;">0.3</text></g><g class="ytick"><text text-anchor="end" x="59" y="4.199999999999999" transform="translate(0,97.28)" style="font-family: 'Open Sans', verdana, arial, sans-serif; font-size: 12px; fill: rgb(68, 68, 68); fill-opacity: 1; white-space: pre;">0.35</text></g><g class="ytick"><text text-anchor="end" x="59" y="4.199999999999999" transform="translate(0,45.61)" style="font-family: 'Open Sans', verdana, arial, sans-serif; font-size: 12px; fill: rgb(68, 68, 68); fill-opacity: 1; white-space: pre;">0.4</text></g></g><g class="overaxes-above"/></g></g><g class="polarlayer"/><g class="ternarylayer"/><g class="geolayer"/><g class="funnelarealayer"/><g class="pielayer"/><g class="treemaplayer"/><g class="sunburstlayer"/><g class="glimages"/><defs id="topdefs-3306aa"><g class="clips"/></defs><g class="layer-above"><g class="imagelayer"/><g class="shapelayer"/></g><g class="infolayer"><g class="g-gtitle"/><g class="g-xtitle"/><g class="g-ytitle"/></g></svg>