<?xml version="1.0" encoding="utf-8"?>
<svg viewBox="0 0 124.44 144.00" id="svg2" version="1.1" xmlns="http://www.w3.org/2000/svg">
  <defs id="defs4">
    <style type="text/css" id="style6">
    line, polyline, path, rect, circle {
      fill: none;
      stroke: #000000;
      stroke-linecap: round;
      stroke-linejoin: round;
      stroke-miterlimit: 10.00;
    }
  </style>
  </defs>
  <polyline points="2.285 37.429 2.285 106.799 62.105 141.486 121.926 106.799 121.926 37.429 62.105 2.743 2.285 37.429" style="stroke: rgb(240, 81, 51); stroke-width: 0px; fill: rgb(240, 81, 51);" clip-path="url(#cpMHwxMjQuNDQxfDE0My45OTd8MC4xNDMxMzc=)" id="polyline29"/>
  <path d="M 112.741 67.322 L 66.897 21.481 C 64.257 18.84 59.975 18.84 57.333 21.481 L 47.815 31.003 L 59.889 43.078 C 62.697 42.129 65.914 42.764 68.151 45.003 C 70.4 47.253 71.031 50.498 70.059 53.316 L 81.698 64.954 C 84.515 63.983 87.762 64.612 90.011 66.862 C 93.153 70.006 93.153 75.098 90.011 78.242 C 86.867 81.386 81.775 81.386 78.628 78.242 C 76.265 75.877 75.68 72.403 76.879 69.491 L 66.024 58.637 L 66.024 87.202 C 66.789 87.581 67.513 88.085 68.151 88.723 C 71.293 91.865 71.293 96.957 68.151 100.103 C 65.008 103.243 59.912 103.243 56.772 100.103 C 53.63 96.956 53.63 91.864 56.772 88.723 C 57.549 87.948 58.449 87.36 59.408 86.967 L 59.408 58.136 C 58.449 57.743 57.552 57.162 56.772 56.38 C 54.392 54.001 53.82 50.507 55.04 47.583 L 43.137 35.677 L 11.701 67.11 C 9.06 69.753 9.06 74.035 11.701 76.676 L 57.547 122.519 C 60.187 125.159 64.468 125.159 67.111 122.519 L 112.741 76.888 C 115.38 74.248 115.38 69.963 112.741 67.322 Z" style="stroke: none; fill: rgb(255, 255, 255);"/>
  <text style="font-size: 24px; white-space: pre;" x="25.457" y="79.175">git</text>
</svg>