<?xml version="1.0" encoding="UTF-8"?>
<!-- Created with Inkscape (http://www.inkscape.org/) -->
<svg width="210mm" height="85mm" version="1.1" viewBox="0 0 210 85" xmlns="http://www.w3.org/2000/svg" xmlns:cc="http://creativecommons.org/ns#" xmlns:dc="http://purl.org/dc/elements/1.1/" xmlns:rdf="http://www.w3.org/1999/02/22-rdf-syntax-ns#">
 <defs>
  <marker id="marker6237" overflow="visible" orient="auto">
   <path transform="scale(.8) rotate(180) translate(12.5)" d="m0 0 5-5-17.5 5 17.5 5-5-5z" fill-rule="evenodd" stroke="#000" stroke-width="1pt"/>
  </marker>
  <marker id="marker5891" overflow="visible" orient="auto">
   <path transform="scale(.8) rotate(180) translate(12.5)" d="m0 0 5-5-17.5 5 17.5 5-5-5z" fill-rule="evenodd" stroke="#000" stroke-width="1pt"/>
  </marker>
  <marker id="Arrow1Lend" overflow="visible" orient="auto">
   <path transform="scale(.8) rotate(180) translate(12.5)" d="m0 0 5-5-17.5 5 17.5 5-5-5z" fill-rule="evenodd" stroke="#000" stroke-width="1pt"/>
  </marker>
  <marker id="Arrow1Lend-0" overflow="visible" orient="auto">
   <path transform="matrix(-.8 0 0 -.8 -10 0)" d="m0 0 5-5-17.5 5 17.5 5z" fill-rule="evenodd" stroke="#000" stroke-width="1pt"/>
  </marker>
  <marker id="Arrow1Lend-0-0" overflow="visible" orient="auto">
   <path transform="matrix(-.8 0 0 -.8 -10 0)" d="m0 0 5-5-17.5 5 17.5 5z" fill-rule="evenodd" stroke="#000" stroke-width="1pt"/>
  </marker>
  <marker id="Arrow1Lend-0-3" overflow="visible" orient="auto">
   <path transform="matrix(-.8 0 0 -.8 -10 0)" d="m0 0 5-5-17.5 5 17.5 5z" fill-rule="evenodd" stroke="#000" stroke-width="1pt"/>
  </marker>
  <marker id="Arrow1Lend-0-4" overflow="visible" orient="auto">
   <path transform="matrix(-.8 0 0 -.8 -10 0)" d="m0 0 5-5-17.5 5 17.5 5z" fill-rule="evenodd" stroke="#000" stroke-width="1pt"/>
  </marker>
  <meshgradient id="meshgradient902" x="0" y="212" gradientUnits="userSpaceOnUse">
   <meshrow>
    <meshpatch>
     <stop stop-color="#fff" path="c 70,0  140,0  210,0"/>
     <stop path="c 0,28.3333  0,56.6667  0,85"/>
     <stop stop-color="#fff" path="c -70,0  -140,0  -210,0"/>
     <stop path="c 0,-28.3333  0,-56.6667  0,-85"/>
    </meshpatch>
   </meshrow>
  </meshgradient>
  <meshgradient id="meshgradient916" x="0" y="212" gradientUnits="userSpaceOnUse">
   <meshrow>
    <meshpatch>
     <stop stop-color="#fff" path="c 70,0  140,0  210,0"/>
     <stop path="c 0,28.3333  0,56.6667  0,85"/>
     <stop stop-color="#fff" path="c -70,0  -140,0  -210,0"/>
     <stop path="c 0,-28.3333  0,-56.6667  0,-85"/>
    </meshpatch>
   </meshrow>
  </meshgradient>
 </defs>
 <metadata>
  <rdf:RDF>
   <cc:Work rdf:about="">
    <dc:format>image/svg+xml</dc:format>
    <dc:type rdf:resource="http://purl.org/dc/dcmitype/StillImage"/>
    <dc:title/>
   </cc:Work>
  </rdf:RDF>
 </metadata>
 <g transform="translate(0,-212)">
  <g>
   <g transform="translate(0,5)">
    <circle cx="15" cy="247" r="15" fill="#b3b3b3" stroke-width=".10231"/>
    <text x="7.0593996" y="244.74493" fill="#000000" font-family="sans-serif" letter-spacing="0px" stroke-width=".12846" word-spacing="0px" style="font-feature-settings:normal;font-variant-caps:normal;font-variant-ligatures:normal;font-variant-numeric:lining-nums;line-height:1.25" xml:space="preserve"><tspan x="7.0593996" y="244.74493" font-size="5.1384px" style="font-feature-settings:normal;font-variant-caps:normal;font-variant-ligatures:normal;font-variant-numeric:lining-nums">    R</tspan><tspan x="7.0593996" y="251.16797" font-size="3.5278px" style="font-feature-settings:normal;font-variant-caps:normal;font-variant-ligatures:normal;font-variant-numeric:lining-nums">(RStudio)</tspan></text>
   </g>
   <circle cx="65" cy="252" r="15" fill="#b3b3b3" stroke-width=".10231"/>
   <text x="54.051373" y="256.13156" fill="#000000" font-family="sans-serif" font-size="6.678px" letter-spacing="0px" stroke-width=".16695" word-spacing="0px" style="line-height:1.25" xml:space="preserve"><tspan x="54.051373" y="256.13156" font-size="3.5278px" stroke-width=".16695">R Markdown</tspan></text>
   <text x="60.086815" y="249.75972" fill="#000000" font-family="sans-serif" font-size="10.583px" letter-spacing="0px" stroke-width=".26458" word-spacing="0px" style="line-height:1.25" xml:space="preserve"><tspan x="60.086815" y="249.75972" font-size="4.9389px" stroke-width=".26458">编辑</tspan></text>
  </g>
  <g fill="#b3b3b3">
   <circle cx="115" cy="227" r="15" stroke-width=".10231"/>
   <circle cx="155" cy="227" r="15" stroke-width=".10231"/>
   <circle cx="195" cy="227" r="15" stroke-width=".10231"/>
   <circle cx="115" cy="282" r="15" stroke-width=".10231"/>
   <circle cx="155" cy="282" r="15" stroke-width=".10231"/>
   <circle cx="195" cy="282" r="15" stroke-width=".10231"/>
  </g>
  <g fill="#000000" font-family="sans-serif" font-size="10.583px" letter-spacing="0px" stroke-width=".26458" word-spacing="0px">
   <text x="109.11227" y="225.44647" style="line-height:1.25" xml:space="preserve"><tspan x="109.11227" y="225.44647" font-size="6.35px" stroke-width=".26458">推送</tspan></text>
   <text x="111.03133" y="233.67102" style="line-height:1.25" xml:space="preserve"><tspan x="111.03133" y="233.67102" font-size="5.6444px" stroke-width=".26458">Git</tspan></text>
   <text x="149.41252" y="224.89818" style="line-height:1.25" xml:space="preserve"><tspan x="149.41252" y="224.89818" font-size="6.35px" stroke-width=".26458">编译</tspan></text>
   <text x="144.34073" y="233.12273" style="line-height:1.25" xml:space="preserve"><tspan x="144.34073" y="233.12273" font-size="4.9389px" stroke-width=".26458">Travis-CI</tspan></text>
   <text x="189.43864" y="224.76111" style="line-height:1.25" xml:space="preserve"><tspan x="189.43864" y="224.76111" font-size="6.35px" stroke-width=".26458">部署</tspan></text>
   <text x="187.9308" y="232.84857" style="line-height:1.25" xml:space="preserve"><tspan x="187.9308" y="232.84857" font-size="4.9389px" stroke-width=".26458">Netlify</tspan></text>
   <text x="107.05613" y="279.72845" style="line-height:1.25" xml:space="preserve"><tspan x="107.05613" y="279.72845" font-size="6.35px" stroke-width=".26458">knitr</tspan></text>
   <text x="109.11227" y="288.36426" style="line-height:1.25" xml:space="preserve"><tspan x="109.11227" y="288.36426" font-size="4.9389px" stroke-width=".26458">.md</tspan></text>
   <text x="144.88904" y="279.86554" style="line-height:1.25" xml:space="preserve"><tspan x="144.88904" y="279.86554" font-size="6.35px" stroke-width=".26458">Pandoc</tspan></text>
   <text x="143.24413" y="287.953" style="line-height:1.25" xml:space="preserve"><tspan x="143.24413" y="287.953" font-size="4.9389px" stroke-width=".26458">.tex/.html</tspan></text>
   <text x="181.62534" y="278.90601" style="line-height:1.25" xml:space="preserve"><tspan x="181.62534" y="278.90601" font-size="6.35px" stroke-width=".26458">XeLaTeX</tspan></text>
   <text x="189.30156" y="287.40469" style="line-height:1.25" xml:space="preserve"><tspan x="189.30156" y="287.40469" font-size="4.9389px" stroke-width=".26458">.pdf</tspan></text>
   <text transform="rotate(-30)" x="-49.433983" y="246.76073" style="line-height:1.25" xml:space="preserve"><tspan x="-49.433983" y="246.76073" font-size="8.4667px" stroke-width=".26458">远程</tspan></text>
   <text transform="rotate(25)" x="183.25558" y="214.40605" style="line-height:1.25" xml:space="preserve"><tspan x="183.25558" y="214.40605" font-size="8.4667px" stroke-width=".26458">本地</tspan></text>
  </g>
  <g fill="none" stroke="#000">
   <g stroke-linejoin="round" stroke-miterlimit="3">
    <path d="m29.972 254.5h20.238" marker-end="url(#Arrow1Lend)" opacity=".75" stroke-width=".37247"/>
    <g stroke-width=".26773">
     <path d="m129.99 226.42h10.456" marker-end="url(#Arrow1Lend-0)" opacity=".75"/>
     <path d="m169.96 225.86h10.456" marker-end="url(#Arrow1Lend-0-0)" opacity=".75"/>
     <path d="m129.99 282.42h10.456" marker-end="url(#Arrow1Lend-0-3)" opacity=".75"/>
     <path d="m170 282.07h10.456" marker-end="url(#Arrow1Lend-0-4)" opacity=".75"/>
    </g>
   </g>
   <path d="m78.294 245.05 22.427-13.459" marker-end="url(#marker5891)" stroke-width=".26458px"/>
   <path d="m76.688 261.4 25.475 12.839" marker-end="url(#marker6237)" stroke-width=".26458px"/>
  </g>
 </g>
</svg>
